<mxfile host="app.diagrams.net" modified="2021-01-20T10:31:06.100Z" agent="5.0 (Windows NT 10.0; Win64; x64) AppleWebKit/537.36 (KHTML, like Gecko) Chrome/87.0.4280.141 Safari/537.36" etag="rhuCmwgMkFAu3qUBGK9_" version="14.2.4" type="github">
  <diagram id="wCQVIfTTx_MlR41eNt6N" name="第 1 页">
    <mxGraphModel dx="2012" dy="635" grid="1" gridSize="10" guides="1" tooltips="1" connect="1" arrows="1" fold="1" page="1" pageScale="1" pageWidth="827" pageHeight="1169" math="0" shadow="0">
      <root>
        <mxCell id="0" />
        <mxCell id="1" parent="0" />
        <mxCell id="HCMb2YCq3nJ5DqFX0QA--3" style="rounded=0;orthogonalLoop=1;jettySize=auto;html=1;exitX=0.5;exitY=1;exitDx=0;exitDy=0;entryX=0.5;entryY=0;entryDx=0;entryDy=0;" edge="1" parent="1" source="HCMb2YCq3nJ5DqFX0QA--1" target="HCMb2YCq3nJ5DqFX0QA--2">
          <mxGeometry relative="1" as="geometry" />
        </mxCell>
        <mxCell id="HCMb2YCq3nJ5DqFX0QA--14" style="edgeStyle=none;rounded=0;orthogonalLoop=1;jettySize=auto;html=1;exitX=0.5;exitY=1;exitDx=0;exitDy=0;entryX=0.5;entryY=0;entryDx=0;entryDy=0;" edge="1" parent="1" source="HCMb2YCq3nJ5DqFX0QA--1" target="HCMb2YCq3nJ5DqFX0QA--12">
          <mxGeometry relative="1" as="geometry" />
        </mxCell>
        <mxCell id="HCMb2YCq3nJ5DqFX0QA--15" style="edgeStyle=none;rounded=0;orthogonalLoop=1;jettySize=auto;html=1;exitX=0.5;exitY=1;exitDx=0;exitDy=0;entryX=0.5;entryY=0;entryDx=0;entryDy=0;" edge="1" parent="1" source="HCMb2YCq3nJ5DqFX0QA--1" target="HCMb2YCq3nJ5DqFX0QA--13">
          <mxGeometry relative="1" as="geometry" />
        </mxCell>
        <mxCell id="HCMb2YCq3nJ5DqFX0QA--18" style="edgeStyle=none;rounded=0;orthogonalLoop=1;jettySize=auto;html=1;exitX=0.5;exitY=1;exitDx=0;exitDy=0;entryX=0.5;entryY=0;entryDx=0;entryDy=0;" edge="1" parent="1" source="HCMb2YCq3nJ5DqFX0QA--1" target="HCMb2YCq3nJ5DqFX0QA--17">
          <mxGeometry relative="1" as="geometry" />
        </mxCell>
        <mxCell id="HCMb2YCq3nJ5DqFX0QA--22" style="edgeStyle=none;rounded=0;orthogonalLoop=1;jettySize=auto;html=1;exitX=0.5;exitY=1;exitDx=0;exitDy=0;entryX=0.5;entryY=0;entryDx=0;entryDy=0;" edge="1" parent="1" source="HCMb2YCq3nJ5DqFX0QA--1" target="HCMb2YCq3nJ5DqFX0QA--19">
          <mxGeometry relative="1" as="geometry" />
        </mxCell>
        <mxCell id="HCMb2YCq3nJ5DqFX0QA--23" style="edgeStyle=none;rounded=0;orthogonalLoop=1;jettySize=auto;html=1;exitX=0.5;exitY=1;exitDx=0;exitDy=0;entryX=0.5;entryY=0;entryDx=0;entryDy=0;" edge="1" parent="1" source="HCMb2YCq3nJ5DqFX0QA--1" target="HCMb2YCq3nJ5DqFX0QA--20">
          <mxGeometry relative="1" as="geometry" />
        </mxCell>
        <mxCell id="HCMb2YCq3nJ5DqFX0QA--24" style="edgeStyle=none;rounded=0;orthogonalLoop=1;jettySize=auto;html=1;exitX=0.5;exitY=1;exitDx=0;exitDy=0;entryX=0.5;entryY=0;entryDx=0;entryDy=0;" edge="1" parent="1" source="HCMb2YCq3nJ5DqFX0QA--1" target="HCMb2YCq3nJ5DqFX0QA--21">
          <mxGeometry relative="1" as="geometry" />
        </mxCell>
        <mxCell id="HCMb2YCq3nJ5DqFX0QA--28" style="edgeStyle=none;rounded=0;orthogonalLoop=1;jettySize=auto;html=1;exitX=0.5;exitY=1;exitDx=0;exitDy=0;entryX=0.5;entryY=0;entryDx=0;entryDy=0;" edge="1" parent="1" source="HCMb2YCq3nJ5DqFX0QA--1" target="HCMb2YCq3nJ5DqFX0QA--25">
          <mxGeometry relative="1" as="geometry" />
        </mxCell>
        <mxCell id="HCMb2YCq3nJ5DqFX0QA--30" style="edgeStyle=none;rounded=0;orthogonalLoop=1;jettySize=auto;html=1;exitX=0.5;exitY=1;exitDx=0;exitDy=0;entryX=0.5;entryY=0;entryDx=0;entryDy=0;" edge="1" parent="1" source="HCMb2YCq3nJ5DqFX0QA--1" target="HCMb2YCq3nJ5DqFX0QA--29">
          <mxGeometry relative="1" as="geometry" />
        </mxCell>
        <mxCell id="HCMb2YCq3nJ5DqFX0QA--70" style="edgeStyle=none;rounded=0;orthogonalLoop=1;jettySize=auto;html=1;exitX=1;exitY=0.5;exitDx=0;exitDy=0;entryX=0;entryY=0.5;entryDx=0;entryDy=0;" edge="1" parent="1" source="HCMb2YCq3nJ5DqFX0QA--1" target="HCMb2YCq3nJ5DqFX0QA--69">
          <mxGeometry relative="1" as="geometry" />
        </mxCell>
        <mxCell id="HCMb2YCq3nJ5DqFX0QA--73" style="edgeStyle=none;rounded=0;orthogonalLoop=1;jettySize=auto;html=1;exitX=0;exitY=0.5;exitDx=0;exitDy=0;entryX=1;entryY=0.5;entryDx=0;entryDy=0;" edge="1" parent="1" source="HCMb2YCq3nJ5DqFX0QA--1" target="HCMb2YCq3nJ5DqFX0QA--72">
          <mxGeometry relative="1" as="geometry" />
        </mxCell>
        <mxCell id="HCMb2YCq3nJ5DqFX0QA--1" value="总控概览：大屏+可视化" style="rounded=1;whiteSpace=wrap;html=1;fillColor=#ffe6cc;strokeColor=#d79b00;" vertex="1" parent="1">
          <mxGeometry x="595" y="20" width="145" height="30" as="geometry" />
        </mxCell>
        <mxCell id="HCMb2YCq3nJ5DqFX0QA--8" style="edgeStyle=none;rounded=0;orthogonalLoop=1;jettySize=auto;html=1;exitX=0.5;exitY=1;exitDx=0;exitDy=0;entryX=0.5;entryY=0;entryDx=0;entryDy=0;" edge="1" parent="1" source="HCMb2YCq3nJ5DqFX0QA--2" target="HCMb2YCq3nJ5DqFX0QA--4">
          <mxGeometry relative="1" as="geometry" />
        </mxCell>
        <mxCell id="HCMb2YCq3nJ5DqFX0QA--9" style="edgeStyle=none;rounded=0;orthogonalLoop=1;jettySize=auto;html=1;exitX=0.5;exitY=1;exitDx=0;exitDy=0;entryX=0.5;entryY=0;entryDx=0;entryDy=0;" edge="1" parent="1" source="HCMb2YCq3nJ5DqFX0QA--2" target="HCMb2YCq3nJ5DqFX0QA--5">
          <mxGeometry relative="1" as="geometry" />
        </mxCell>
        <mxCell id="HCMb2YCq3nJ5DqFX0QA--10" style="edgeStyle=none;rounded=0;orthogonalLoop=1;jettySize=auto;html=1;exitX=0.5;exitY=1;exitDx=0;exitDy=0;entryX=0.5;entryY=0;entryDx=0;entryDy=0;" edge="1" parent="1" source="HCMb2YCq3nJ5DqFX0QA--2" target="HCMb2YCq3nJ5DqFX0QA--6">
          <mxGeometry relative="1" as="geometry" />
        </mxCell>
        <mxCell id="HCMb2YCq3nJ5DqFX0QA--11" style="edgeStyle=none;rounded=0;orthogonalLoop=1;jettySize=auto;html=1;exitX=0.5;exitY=1;exitDx=0;exitDy=0;entryX=0.5;entryY=0;entryDx=0;entryDy=0;" edge="1" parent="1" source="HCMb2YCq3nJ5DqFX0QA--2" target="HCMb2YCq3nJ5DqFX0QA--7">
          <mxGeometry relative="1" as="geometry" />
        </mxCell>
        <mxCell id="HCMb2YCq3nJ5DqFX0QA--102" style="edgeStyle=none;rounded=0;orthogonalLoop=1;jettySize=auto;html=1;exitX=0.5;exitY=1;exitDx=0;exitDy=0;entryX=0.5;entryY=0;entryDx=0;entryDy=0;" edge="1" parent="1" source="HCMb2YCq3nJ5DqFX0QA--2" target="HCMb2YCq3nJ5DqFX0QA--101">
          <mxGeometry relative="1" as="geometry" />
        </mxCell>
        <mxCell id="HCMb2YCq3nJ5DqFX0QA--103" style="edgeStyle=none;rounded=0;orthogonalLoop=1;jettySize=auto;html=1;exitX=0.5;exitY=1;exitDx=0;exitDy=0;entryX=0.5;entryY=0;entryDx=0;entryDy=0;" edge="1" parent="1" source="HCMb2YCq3nJ5DqFX0QA--2" target="HCMb2YCq3nJ5DqFX0QA--100">
          <mxGeometry relative="1" as="geometry" />
        </mxCell>
        <mxCell id="HCMb2YCq3nJ5DqFX0QA--2" value="车路协同" style="rounded=0;whiteSpace=wrap;html=1;" vertex="1" parent="1">
          <mxGeometry x="80" y="160" width="80" height="30" as="geometry" />
        </mxCell>
        <mxCell id="HCMb2YCq3nJ5DqFX0QA--4" value="公交/特种车辆优先" style="rounded=0;whiteSpace=wrap;html=1;" vertex="1" parent="1">
          <mxGeometry x="10" y="260" width="120" height="30" as="geometry" />
        </mxCell>
        <mxCell id="HCMb2YCq3nJ5DqFX0QA--5" value="高速/过弯预警" style="rounded=0;whiteSpace=wrap;html=1;" vertex="1" parent="1">
          <mxGeometry x="140" y="260" width="90" height="30" as="geometry" />
        </mxCell>
        <mxCell id="HCMb2YCq3nJ5DqFX0QA--6" value="红绿灯预警" style="rounded=0;whiteSpace=wrap;html=1;" vertex="1" parent="1">
          <mxGeometry x="240" y="260" width="80" height="30" as="geometry" />
        </mxCell>
        <mxCell id="HCMb2YCq3nJ5DqFX0QA--7" value="异常信息提示：避撞预警、其他信息、紧急刹车" style="rounded=0;whiteSpace=wrap;html=1;" vertex="1" parent="1">
          <mxGeometry x="330" y="255" width="140" height="40" as="geometry" />
        </mxCell>
        <mxCell id="HCMb2YCq3nJ5DqFX0QA--12" value="数据资产" style="rounded=0;whiteSpace=wrap;html=1;" vertex="1" parent="1">
          <mxGeometry x="350" y="160" width="80" height="30" as="geometry" />
        </mxCell>
        <mxCell id="HCMb2YCq3nJ5DqFX0QA--13" value="设备管理" style="rounded=0;whiteSpace=wrap;html=1;" vertex="1" parent="1">
          <mxGeometry x="440" y="160" width="80" height="30" as="geometry" />
        </mxCell>
        <mxCell id="HCMb2YCq3nJ5DqFX0QA--56" style="edgeStyle=none;rounded=0;orthogonalLoop=1;jettySize=auto;html=1;exitX=0.5;exitY=1;exitDx=0;exitDy=0;entryX=0.5;entryY=0;entryDx=0;entryDy=0;" edge="1" parent="1" source="HCMb2YCq3nJ5DqFX0QA--17" target="HCMb2YCq3nJ5DqFX0QA--55">
          <mxGeometry relative="1" as="geometry" />
        </mxCell>
        <mxCell id="HCMb2YCq3nJ5DqFX0QA--17" value="交管/信控" style="rounded=0;whiteSpace=wrap;html=1;" vertex="1" parent="1">
          <mxGeometry x="530" y="160" width="80" height="30" as="geometry" />
        </mxCell>
        <mxCell id="HCMb2YCq3nJ5DqFX0QA--19" value="规划" style="rounded=0;whiteSpace=wrap;html=1;" vertex="1" parent="1">
          <mxGeometry x="620" y="160" width="80" height="30" as="geometry" />
        </mxCell>
        <mxCell id="HCMb2YCq3nJ5DqFX0QA--27" style="edgeStyle=none;rounded=0;orthogonalLoop=1;jettySize=auto;html=1;exitX=0.5;exitY=1;exitDx=0;exitDy=0;entryX=0.5;entryY=0;entryDx=0;entryDy=0;" edge="1" parent="1" source="HCMb2YCq3nJ5DqFX0QA--20" target="HCMb2YCq3nJ5DqFX0QA--26">
          <mxGeometry relative="1" as="geometry" />
        </mxCell>
        <mxCell id="HCMb2YCq3nJ5DqFX0QA--20" value="监测" style="rounded=0;whiteSpace=wrap;html=1;" vertex="1" parent="1">
          <mxGeometry x="710" y="160" width="80" height="30" as="geometry" />
        </mxCell>
        <mxCell id="HCMb2YCq3nJ5DqFX0QA--60" style="edgeStyle=none;rounded=0;orthogonalLoop=1;jettySize=auto;html=1;exitX=0.5;exitY=1;exitDx=0;exitDy=0;entryX=0.5;entryY=0;entryDx=0;entryDy=0;" edge="1" parent="1" source="HCMb2YCq3nJ5DqFX0QA--21" target="HCMb2YCq3nJ5DqFX0QA--59">
          <mxGeometry relative="1" as="geometry" />
        </mxCell>
        <mxCell id="HCMb2YCq3nJ5DqFX0QA--21" value="公共交通调度" style="rounded=0;whiteSpace=wrap;html=1;" vertex="1" parent="1">
          <mxGeometry x="800" y="160" width="90" height="30" as="geometry" />
        </mxCell>
        <mxCell id="HCMb2YCq3nJ5DqFX0QA--63" style="edgeStyle=none;rounded=0;orthogonalLoop=1;jettySize=auto;html=1;exitX=0.5;exitY=1;exitDx=0;exitDy=0;entryX=0.5;entryY=0;entryDx=0;entryDy=0;" edge="1" parent="1" source="HCMb2YCq3nJ5DqFX0QA--25" target="HCMb2YCq3nJ5DqFX0QA--61">
          <mxGeometry relative="1" as="geometry" />
        </mxCell>
        <mxCell id="HCMb2YCq3nJ5DqFX0QA--25" value="停车+充电" style="rounded=0;whiteSpace=wrap;html=1;" vertex="1" parent="1">
          <mxGeometry x="900" y="160" width="80" height="30" as="geometry" />
        </mxCell>
        <mxCell id="HCMb2YCq3nJ5DqFX0QA--58" style="edgeStyle=none;rounded=0;orthogonalLoop=1;jettySize=auto;html=1;exitX=0.5;exitY=1;exitDx=0;exitDy=0;entryX=0.5;entryY=0;entryDx=0;entryDy=0;" edge="1" parent="1" source="HCMb2YCq3nJ5DqFX0QA--26" target="HCMb2YCq3nJ5DqFX0QA--57">
          <mxGeometry relative="1" as="geometry" />
        </mxCell>
        <mxCell id="HCMb2YCq3nJ5DqFX0QA--26" value="流量数据模式&lt;br&gt;道路监测&lt;br&gt;数据分析" style="rounded=0;whiteSpace=wrap;html=1;dashed=1;" vertex="1" parent="1">
          <mxGeometry x="640" y="225" width="110" height="55" as="geometry" />
        </mxCell>
        <mxCell id="HCMb2YCq3nJ5DqFX0QA--65" style="edgeStyle=none;rounded=0;orthogonalLoop=1;jettySize=auto;html=1;exitX=0.5;exitY=1;exitDx=0;exitDy=0;entryX=0.5;entryY=0;entryDx=0;entryDy=0;" edge="1" parent="1" source="HCMb2YCq3nJ5DqFX0QA--29" target="HCMb2YCq3nJ5DqFX0QA--62">
          <mxGeometry relative="1" as="geometry" />
        </mxCell>
        <mxCell id="HCMb2YCq3nJ5DqFX0QA--29" value="POI+应急时间（节假日、雨雪天气）" style="rounded=0;whiteSpace=wrap;html=1;" vertex="1" parent="1">
          <mxGeometry x="990" y="155" width="110" height="40" as="geometry" />
        </mxCell>
        <mxCell id="HCMb2YCq3nJ5DqFX0QA--34" style="edgeStyle=none;rounded=0;orthogonalLoop=1;jettySize=auto;html=1;exitX=0.5;exitY=1;exitDx=0;exitDy=0;entryX=0.5;entryY=0;entryDx=0;entryDy=0;" edge="1" parent="1" source="HCMb2YCq3nJ5DqFX0QA--31" target="HCMb2YCq3nJ5DqFX0QA--32">
          <mxGeometry relative="1" as="geometry" />
        </mxCell>
        <mxCell id="HCMb2YCq3nJ5DqFX0QA--35" style="edgeStyle=none;rounded=0;orthogonalLoop=1;jettySize=auto;html=1;exitX=0.5;exitY=1;exitDx=0;exitDy=0;entryX=0.5;entryY=0;entryDx=0;entryDy=0;" edge="1" parent="1" source="HCMb2YCq3nJ5DqFX0QA--31" target="HCMb2YCq3nJ5DqFX0QA--33">
          <mxGeometry relative="1" as="geometry" />
        </mxCell>
        <mxCell id="HCMb2YCq3nJ5DqFX0QA--36" style="edgeStyle=none;rounded=0;orthogonalLoop=1;jettySize=auto;html=1;exitX=0.5;exitY=0;exitDx=0;exitDy=0;entryX=0.5;entryY=1;entryDx=0;entryDy=0;" edge="1" parent="1" source="HCMb2YCq3nJ5DqFX0QA--31" target="HCMb2YCq3nJ5DqFX0QA--6">
          <mxGeometry relative="1" as="geometry" />
        </mxCell>
        <mxCell id="HCMb2YCq3nJ5DqFX0QA--37" style="edgeStyle=none;rounded=0;orthogonalLoop=1;jettySize=auto;html=1;exitX=0.5;exitY=0;exitDx=0;exitDy=0;entryX=0.5;entryY=1;entryDx=0;entryDy=0;" edge="1" parent="1" source="HCMb2YCq3nJ5DqFX0QA--31" target="HCMb2YCq3nJ5DqFX0QA--17">
          <mxGeometry relative="1" as="geometry" />
        </mxCell>
        <mxCell id="HCMb2YCq3nJ5DqFX0QA--52" style="edgeStyle=none;rounded=0;orthogonalLoop=1;jettySize=auto;html=1;exitX=1;exitY=0.5;exitDx=0;exitDy=0;entryX=0;entryY=0.5;entryDx=0;entryDy=0;" edge="1" parent="1" source="HCMb2YCq3nJ5DqFX0QA--31" target="HCMb2YCq3nJ5DqFX0QA--51">
          <mxGeometry relative="1" as="geometry" />
        </mxCell>
        <mxCell id="HCMb2YCq3nJ5DqFX0QA--31" value="运营中台" style="rounded=1;whiteSpace=wrap;html=1;fillColor=#ffe6cc;strokeColor=#d79b00;" vertex="1" parent="1">
          <mxGeometry x="355" y="390" width="80" height="30" as="geometry" />
        </mxCell>
        <mxCell id="HCMb2YCq3nJ5DqFX0QA--32" value="权限系统" style="rounded=0;whiteSpace=wrap;html=1;" vertex="1" parent="1">
          <mxGeometry x="270" y="460" width="60" height="30" as="geometry" />
        </mxCell>
        <mxCell id="HCMb2YCq3nJ5DqFX0QA--75" style="edgeStyle=none;rounded=0;orthogonalLoop=1;jettySize=auto;html=1;exitX=0.5;exitY=1;exitDx=0;exitDy=0;entryX=0.5;entryY=0;entryDx=0;entryDy=0;" edge="1" parent="1" source="HCMb2YCq3nJ5DqFX0QA--33" target="HCMb2YCq3nJ5DqFX0QA--74">
          <mxGeometry relative="1" as="geometry" />
        </mxCell>
        <mxCell id="HCMb2YCq3nJ5DqFX0QA--33" value="商业化待定" style="rounded=0;whiteSpace=wrap;html=1;" vertex="1" parent="1">
          <mxGeometry x="435" y="460" width="85" height="30" as="geometry" />
        </mxCell>
        <mxCell id="HCMb2YCq3nJ5DqFX0QA--45" style="edgeStyle=none;rounded=0;orthogonalLoop=1;jettySize=auto;html=1;exitX=0.5;exitY=1;exitDx=0;exitDy=0;entryX=0.5;entryY=0;entryDx=0;entryDy=0;" edge="1" parent="1" source="HCMb2YCq3nJ5DqFX0QA--38" target="HCMb2YCq3nJ5DqFX0QA--39">
          <mxGeometry relative="1" as="geometry" />
        </mxCell>
        <mxCell id="HCMb2YCq3nJ5DqFX0QA--46" style="edgeStyle=none;rounded=0;orthogonalLoop=1;jettySize=auto;html=1;exitX=0.5;exitY=1;exitDx=0;exitDy=0;entryX=0.5;entryY=0;entryDx=0;entryDy=0;" edge="1" parent="1" source="HCMb2YCq3nJ5DqFX0QA--38" target="HCMb2YCq3nJ5DqFX0QA--40">
          <mxGeometry relative="1" as="geometry" />
        </mxCell>
        <mxCell id="HCMb2YCq3nJ5DqFX0QA--47" style="edgeStyle=none;rounded=0;orthogonalLoop=1;jettySize=auto;html=1;exitX=0.5;exitY=1;exitDx=0;exitDy=0;entryX=0.5;entryY=0;entryDx=0;entryDy=0;" edge="1" parent="1" source="HCMb2YCq3nJ5DqFX0QA--38" target="HCMb2YCq3nJ5DqFX0QA--41">
          <mxGeometry relative="1" as="geometry" />
        </mxCell>
        <mxCell id="HCMb2YCq3nJ5DqFX0QA--48" style="edgeStyle=none;rounded=0;orthogonalLoop=1;jettySize=auto;html=1;exitX=0.5;exitY=1;exitDx=0;exitDy=0;entryX=0.5;entryY=0;entryDx=0;entryDy=0;" edge="1" parent="1" source="HCMb2YCq3nJ5DqFX0QA--38" target="HCMb2YCq3nJ5DqFX0QA--42">
          <mxGeometry relative="1" as="geometry" />
        </mxCell>
        <mxCell id="HCMb2YCq3nJ5DqFX0QA--49" style="edgeStyle=none;rounded=0;orthogonalLoop=1;jettySize=auto;html=1;exitX=0.5;exitY=1;exitDx=0;exitDy=0;entryX=0.5;entryY=0;entryDx=0;entryDy=0;" edge="1" parent="1" source="HCMb2YCq3nJ5DqFX0QA--38" target="HCMb2YCq3nJ5DqFX0QA--43">
          <mxGeometry relative="1" as="geometry" />
        </mxCell>
        <mxCell id="HCMb2YCq3nJ5DqFX0QA--50" style="edgeStyle=none;rounded=0;orthogonalLoop=1;jettySize=auto;html=1;exitX=0.5;exitY=1;exitDx=0;exitDy=0;entryX=0.5;entryY=0;entryDx=0;entryDy=0;" edge="1" parent="1" source="HCMb2YCq3nJ5DqFX0QA--38" target="HCMb2YCq3nJ5DqFX0QA--44">
          <mxGeometry relative="1" as="geometry" />
        </mxCell>
        <mxCell id="HCMb2YCq3nJ5DqFX0QA--38" value="APP" style="rounded=1;whiteSpace=wrap;html=1;fillColor=#ffe6cc;strokeColor=#d79b00;" vertex="1" parent="1">
          <mxGeometry x="280" y="590" width="80" height="35" as="geometry" />
        </mxCell>
        <mxCell id="HCMb2YCq3nJ5DqFX0QA--39" value="公交信息化 P0" style="rounded=0;whiteSpace=wrap;html=1;" vertex="1" parent="1">
          <mxGeometry x="20" y="680" width="110" height="40" as="geometry" />
        </mxCell>
        <mxCell id="HCMb2YCq3nJ5DqFX0QA--40" value="导航+信息发布（交旅融合） P0" style="rounded=0;whiteSpace=wrap;html=1;" vertex="1" parent="1">
          <mxGeometry x="140" y="680" width="110" height="40" as="geometry" />
        </mxCell>
        <mxCell id="HCMb2YCq3nJ5DqFX0QA--41" value="出租车 P1?" style="rounded=0;whiteSpace=wrap;html=1;" vertex="1" parent="1">
          <mxGeometry x="260" y="680" width="90" height="40" as="geometry" />
        </mxCell>
        <mxCell id="HCMb2YCq3nJ5DqFX0QA--42" value="两轮车 P1?" style="rounded=0;whiteSpace=wrap;html=1;" vertex="1" parent="1">
          <mxGeometry x="360" y="680" width="90" height="40" as="geometry" />
        </mxCell>
        <mxCell id="HCMb2YCq3nJ5DqFX0QA--43" value="停车 P0.5" style="rounded=0;whiteSpace=wrap;html=1;" vertex="1" parent="1">
          <mxGeometry x="460" y="680" width="80" height="40" as="geometry" />
        </mxCell>
        <mxCell id="HCMb2YCq3nJ5DqFX0QA--44" value="充电 P1" style="rounded=0;whiteSpace=wrap;html=1;" vertex="1" parent="1">
          <mxGeometry x="550" y="680" width="60" height="40" as="geometry" />
        </mxCell>
        <mxCell id="HCMb2YCq3nJ5DqFX0QA--79" style="edgeStyle=none;rounded=0;orthogonalLoop=1;jettySize=auto;html=1;exitX=1;exitY=0.5;exitDx=0;exitDy=0;entryX=0;entryY=0.5;entryDx=0;entryDy=0;dashed=1;" edge="1" parent="1" source="HCMb2YCq3nJ5DqFX0QA--51" target="HCMb2YCq3nJ5DqFX0QA--53">
          <mxGeometry relative="1" as="geometry" />
        </mxCell>
        <mxCell id="HCMb2YCq3nJ5DqFX0QA--81" style="edgeStyle=none;rounded=0;orthogonalLoop=1;jettySize=auto;html=1;exitX=0.5;exitY=1;exitDx=0;exitDy=0;entryX=0.5;entryY=0;entryDx=0;entryDy=0;" edge="1" parent="1" source="HCMb2YCq3nJ5DqFX0QA--51" target="HCMb2YCq3nJ5DqFX0QA--78">
          <mxGeometry relative="1" as="geometry" />
        </mxCell>
        <mxCell id="HCMb2YCq3nJ5DqFX0QA--82" style="edgeStyle=none;rounded=0;orthogonalLoop=1;jettySize=auto;html=1;exitX=0.5;exitY=1;exitDx=0;exitDy=0;entryX=0.5;entryY=0;entryDx=0;entryDy=0;dashed=1;" edge="1" parent="1" source="HCMb2YCq3nJ5DqFX0QA--51" target="HCMb2YCq3nJ5DqFX0QA--80">
          <mxGeometry relative="1" as="geometry" />
        </mxCell>
        <mxCell id="HCMb2YCq3nJ5DqFX0QA--88" style="edgeStyle=none;rounded=0;orthogonalLoop=1;jettySize=auto;html=1;exitX=0.5;exitY=1;exitDx=0;exitDy=0;entryX=0.5;entryY=0;entryDx=0;entryDy=0;" edge="1" parent="1" source="HCMb2YCq3nJ5DqFX0QA--51" target="HCMb2YCq3nJ5DqFX0QA--85">
          <mxGeometry relative="1" as="geometry" />
        </mxCell>
        <mxCell id="HCMb2YCq3nJ5DqFX0QA--89" style="edgeStyle=none;rounded=0;orthogonalLoop=1;jettySize=auto;html=1;exitX=0.5;exitY=1;exitDx=0;exitDy=0;entryX=0.5;entryY=0;entryDx=0;entryDy=0;" edge="1" parent="1" source="HCMb2YCq3nJ5DqFX0QA--51" target="HCMb2YCq3nJ5DqFX0QA--86">
          <mxGeometry relative="1" as="geometry" />
        </mxCell>
        <mxCell id="HCMb2YCq3nJ5DqFX0QA--90" style="edgeStyle=none;rounded=0;orthogonalLoop=1;jettySize=auto;html=1;exitX=0.5;exitY=1;exitDx=0;exitDy=0;entryX=0.5;entryY=0;entryDx=0;entryDy=0;" edge="1" parent="1" source="HCMb2YCq3nJ5DqFX0QA--51" target="HCMb2YCq3nJ5DqFX0QA--87">
          <mxGeometry relative="1" as="geometry" />
        </mxCell>
        <mxCell id="HCMb2YCq3nJ5DqFX0QA--92" style="edgeStyle=none;rounded=0;orthogonalLoop=1;jettySize=auto;html=1;exitX=0.5;exitY=1;exitDx=0;exitDy=0;entryX=0.5;entryY=0;entryDx=0;entryDy=0;dashed=1;" edge="1" parent="1" source="HCMb2YCq3nJ5DqFX0QA--51" target="HCMb2YCq3nJ5DqFX0QA--91">
          <mxGeometry relative="1" as="geometry" />
        </mxCell>
        <mxCell id="HCMb2YCq3nJ5DqFX0QA--51" value="大数据平台" style="rounded=1;whiteSpace=wrap;html=1;fillColor=#ffe6cc;strokeColor=#d79b00;" vertex="1" parent="1">
          <mxGeometry x="835" y="585" width="100" height="30" as="geometry" />
        </mxCell>
        <mxCell id="HCMb2YCq3nJ5DqFX0QA--53" value="标准化：对内、对外等" style="rounded=0;whiteSpace=wrap;html=1;" vertex="1" parent="1">
          <mxGeometry x="1020" y="565" width="150" height="40" as="geometry" />
        </mxCell>
        <mxCell id="HCMb2YCq3nJ5DqFX0QA--55" value="可以范围再大一些，具体看我们怎么包装，信控可以是实体、可以范围更大一些、交管相关的一些分析系、更通用一些，先围绕信控" style="rounded=0;whiteSpace=wrap;html=1;dashed=1;" vertex="1" parent="1">
          <mxGeometry x="495" y="300" width="205" height="80" as="geometry" />
        </mxCell>
        <mxCell id="HCMb2YCq3nJ5DqFX0QA--57" value="客观+中观（仿真部分）：比如说雄安整体交通是什么样子的、有多少人乘坐公交、有多少人乘坐私家车，出行时间分布，大概范围是什么样子，要有个大体的意识；比如北京发了多少个车牌，道路上的交通量、车辆密度是什么情况" style="rounded=0;whiteSpace=wrap;html=1;dashed=1;" vertex="1" parent="1">
          <mxGeometry x="720" y="340" width="200" height="110" as="geometry" />
        </mxCell>
        <mxCell id="HCMb2YCq3nJ5DqFX0QA--59" value="调度、运营效率、上车率，需要从第三方获得数据；这个需要沟通，能否拿到相关数据，目前第一期基本拿不到" style="rounded=0;whiteSpace=wrap;html=1;dashed=1;" vertex="1" parent="1">
          <mxGeometry x="780" y="220" width="140" height="75" as="geometry" />
        </mxCell>
        <mxCell id="HCMb2YCq3nJ5DqFX0QA--61" value="枢纽：交通服务设施、关键场合、CBD、商业区等展示周围环境的具体情况" style="rounded=0;whiteSpace=wrap;html=1;dashed=1;" vertex="1" parent="1">
          <mxGeometry x="940" y="237.5" width="120" height="75" as="geometry" />
        </mxCell>
        <mxCell id="HCMb2YCq3nJ5DqFX0QA--67" style="edgeStyle=none;rounded=0;orthogonalLoop=1;jettySize=auto;html=1;exitX=0.5;exitY=1;exitDx=0;exitDy=0;entryX=0.5;entryY=0;entryDx=0;entryDy=0;" edge="1" parent="1" source="HCMb2YCq3nJ5DqFX0QA--62" target="HCMb2YCq3nJ5DqFX0QA--66">
          <mxGeometry relative="1" as="geometry" />
        </mxCell>
        <mxCell id="HCMb2YCq3nJ5DqFX0QA--62" value="重点的空间和时间：节假日、雨雪天、灾害天气等做一些场景；&lt;br&gt;重点区域：枢纽 、城镇、集会地点、重点需要关注的点" style="rounded=0;whiteSpace=wrap;html=1;dashed=1;" vertex="1" parent="1">
          <mxGeometry x="1091" y="220" width="150" height="95" as="geometry" />
        </mxCell>
        <mxCell id="HCMb2YCq3nJ5DqFX0QA--66" value="时间和空间的专题大屏" style="rounded=0;whiteSpace=wrap;html=1;dashed=1;" vertex="1" parent="1">
          <mxGeometry x="1091" y="365" width="139" height="45" as="geometry" />
        </mxCell>
        <mxCell id="HCMb2YCq3nJ5DqFX0QA--69" value="G端、数字交通实验室、委办部门" style="rounded=0;whiteSpace=wrap;html=1;dashed=1;" vertex="1" parent="1">
          <mxGeometry x="800" y="10" width="120" height="60" as="geometry" />
        </mxCell>
        <mxCell id="HCMb2YCq3nJ5DqFX0QA--72" value="增加权限管理&lt;br&gt;运营板块：运营中台" style="rounded=0;whiteSpace=wrap;html=1;dashed=1;" vertex="1" parent="1">
          <mxGeometry x="275" y="40" width="125" height="50" as="geometry" />
        </mxCell>
        <mxCell id="HCMb2YCq3nJ5DqFX0QA--74" value="开个公司、搞个系统等" style="rounded=0;whiteSpace=wrap;html=1;dashed=1;" vertex="1" parent="1">
          <mxGeometry x="430" y="530" width="100" height="40" as="geometry" />
        </mxCell>
        <mxCell id="HCMb2YCq3nJ5DqFX0QA--78" value="数据仓库" style="rounded=0;whiteSpace=wrap;html=1;" vertex="1" parent="1">
          <mxGeometry x="710" y="660" width="80" height="30" as="geometry" />
        </mxCell>
        <mxCell id="HCMb2YCq3nJ5DqFX0QA--84" style="edgeStyle=none;rounded=0;orthogonalLoop=1;jettySize=auto;html=1;exitX=0.5;exitY=1;exitDx=0;exitDy=0;entryX=0.5;entryY=0;entryDx=0;entryDy=0;" edge="1" parent="1" source="HCMb2YCq3nJ5DqFX0QA--80">
          <mxGeometry relative="1" as="geometry">
            <mxPoint x="765" y="800" as="targetPoint" />
          </mxGeometry>
        </mxCell>
        <mxCell id="HCMb2YCq3nJ5DqFX0QA--80" value="可获取的数据资源" style="rounded=0;whiteSpace=wrap;html=1;" vertex="1" parent="1">
          <mxGeometry x="725" y="720" width="110" height="30" as="geometry" />
        </mxCell>
        <mxCell id="HCMb2YCq3nJ5DqFX0QA--83" value="委办：目前不用考虑，他们什么都不懂，领导原话" style="rounded=0;whiteSpace=wrap;html=1;dashed=1;" vertex="1" parent="1">
          <mxGeometry x="740" y="790" width="120" height="60" as="geometry" />
        </mxCell>
        <mxCell id="HCMb2YCq3nJ5DqFX0QA--85" value="路网" style="rounded=0;whiteSpace=wrap;html=1;" vertex="1" parent="1">
          <mxGeometry x="845" y="660" width="80" height="30" as="geometry" />
        </mxCell>
        <mxCell id="HCMb2YCq3nJ5DqFX0QA--86" value="特征平台" style="rounded=0;whiteSpace=wrap;html=1;" vertex="1" parent="1">
          <mxGeometry x="935" y="660" width="80" height="30" as="geometry" />
        </mxCell>
        <mxCell id="HCMb2YCq3nJ5DqFX0QA--87" value="发布+开放平台" style="rounded=0;whiteSpace=wrap;html=1;" vertex="1" parent="1">
          <mxGeometry x="1025" y="660" width="95" height="30" as="geometry" />
        </mxCell>
        <mxCell id="HCMb2YCq3nJ5DqFX0QA--97" style="edgeStyle=none;rounded=0;orthogonalLoop=1;jettySize=auto;html=1;exitX=0.5;exitY=1;exitDx=0;exitDy=0;entryX=0.5;entryY=0;entryDx=0;entryDy=0;" edge="1" parent="1" source="HCMb2YCq3nJ5DqFX0QA--91" target="HCMb2YCq3nJ5DqFX0QA--94">
          <mxGeometry relative="1" as="geometry" />
        </mxCell>
        <mxCell id="HCMb2YCq3nJ5DqFX0QA--98" style="edgeStyle=none;rounded=0;orthogonalLoop=1;jettySize=auto;html=1;exitX=0.5;exitY=1;exitDx=0;exitDy=0;entryX=0.5;entryY=0;entryDx=0;entryDy=0;" edge="1" parent="1" source="HCMb2YCq3nJ5DqFX0QA--91" target="HCMb2YCq3nJ5DqFX0QA--95">
          <mxGeometry relative="1" as="geometry" />
        </mxCell>
        <mxCell id="HCMb2YCq3nJ5DqFX0QA--99" style="edgeStyle=none;rounded=0;orthogonalLoop=1;jettySize=auto;html=1;exitX=0.5;exitY=1;exitDx=0;exitDy=0;entryX=0.5;entryY=0;entryDx=0;entryDy=0;" edge="1" parent="1" source="HCMb2YCq3nJ5DqFX0QA--91" target="HCMb2YCq3nJ5DqFX0QA--96">
          <mxGeometry relative="1" as="geometry" />
        </mxCell>
        <mxCell id="HCMb2YCq3nJ5DqFX0QA--91" value="需要考虑的相关平台" style="rounded=0;whiteSpace=wrap;html=1;" vertex="1" parent="1">
          <mxGeometry x="1130" y="660" width="120" height="30" as="geometry" />
        </mxCell>
        <mxCell id="HCMb2YCq3nJ5DqFX0QA--94" value="IOT" style="rounded=0;whiteSpace=wrap;html=1;" vertex="1" parent="1">
          <mxGeometry x="1091" y="730" width="57.5" height="30" as="geometry" />
        </mxCell>
        <mxCell id="HCMb2YCq3nJ5DqFX0QA--95" value="视频" style="rounded=0;whiteSpace=wrap;html=1;" vertex="1" parent="1">
          <mxGeometry x="1158.5" y="730" width="57.5" height="30" as="geometry" />
        </mxCell>
        <mxCell id="HCMb2YCq3nJ5DqFX0QA--96" value="块数据平台" style="rounded=0;whiteSpace=wrap;html=1;" vertex="1" parent="1">
          <mxGeometry x="1226" y="730" width="75" height="30" as="geometry" />
        </mxCell>
        <mxCell id="HCMb2YCq3nJ5DqFX0QA--100" value="OBU" style="rounded=0;whiteSpace=wrap;html=1;" vertex="1" parent="1">
          <mxGeometry x="-130" y="260" width="60" height="30" as="geometry" />
        </mxCell>
        <mxCell id="HCMb2YCq3nJ5DqFX0QA--105" style="edgeStyle=none;rounded=0;orthogonalLoop=1;jettySize=auto;html=1;exitX=0.5;exitY=1;exitDx=0;exitDy=0;entryX=0.5;entryY=0;entryDx=0;entryDy=0;" edge="1" parent="1" source="HCMb2YCq3nJ5DqFX0QA--101" target="HCMb2YCq3nJ5DqFX0QA--104">
          <mxGeometry relative="1" as="geometry" />
        </mxCell>
        <mxCell id="HCMb2YCq3nJ5DqFX0QA--101" value="APP" style="rounded=0;whiteSpace=wrap;html=1;" vertex="1" parent="1">
          <mxGeometry x="-60" y="260" width="60" height="30" as="geometry" />
        </mxCell>
        <mxCell id="HCMb2YCq3nJ5DqFX0QA--104" value="APP是否增加车路协同页面" style="rounded=0;whiteSpace=wrap;html=1;dashed=1;" vertex="1" parent="1">
          <mxGeometry x="-90" y="365" width="120" height="60" as="geometry" />
        </mxCell>
      </root>
    </mxGraphModel>
  </diagram>
</mxfile>
